<svg width="671" height="102" viewBox="0 0 671 102" fill="none" xmlns="http://www.w3.org/2000/svg">
<path fill-rule="evenodd" clip-rule="evenodd" d="M173.5 0H145V82C145 92.4934 153.506 101 164 101H242V77.265H181.5C177.082 77.265 173.5 73.6833 173.5 69.265V0ZM341.999 0V24H399.999C401.104 24 401.999 24.8954 401.999 26V101H430.499V26C430.499 24.8954 431.395 24 432.499 24H487.999V0H341.999ZM507.999 0H539.499L568.85 40.7125C569.656 41.8303 571.324 41.8174 572.113 40.6873L600.499 0H632.999L586.564 62.8814C585.548 64.2575 584.999 65.9231 584.999 67.6337V100.5H555.999V67.6667C555.999 65.9357 555.438 64.2514 554.399 62.8667L534.999 37L507.999 0ZM262 0H290.5V69.265C290.5 73.6833 294.082 77.265 298.5 77.265H359V101H281C270.506 101 262 92.4934 262 82V0ZM24.4995 0.000244141H120.001V21.1047H31.0014C29.8969 21.1047 29.0014 22.0002 29.0014 23.1047V37.6968C29.0014 38.8013 29.8969 39.6968 31.0014 39.6968H120.001V60.2988H31.0014C29.8969 60.2988 29.0014 61.1942 29.0014 62.2988V76.8908C29.0014 77.9954 29.8969 78.8908 31.0014 78.8908H120.001V101H18.9966C8.50459 101 0.00159833 92.4966 0.00151951 82.0046L0.00146484 79.8958L0.381652 18.8817C0.446748 8.43475 8.93129 0.000228762 19.3784 0.000242175L24.4995 0.000244141ZM645.6 99.8C647.733 100.7 650.05 101.15 652.55 101.15C655.05 101.15 657.366 100.7 659.5 99.8C661.633 98.9 663.5 97.65 665.1 96.05C666.733 94.4167 668 92.5333 668.9 90.4C669.8 88.2333 670.25 85.9 670.25 83.4C670.25 80.9 669.8 78.6 668.9 76.5C668.033 74.3667 666.8 72.5 665.2 70.9C663.633 69.3 661.766 68.0667 659.6 67.2C657.466 66.3 655.15 65.85 652.65 65.85C650.15 65.85 647.816 66.3 645.65 67.2C643.516 68.1 641.65 69.3667 640.05 71C638.45 72.6 637.2 74.4667 636.3 76.6C635.4 78.7333 634.95 81.0333 634.95 83.5C634.95 85.9667 635.383 88.2667 636.25 90.4C637.15 92.5333 638.4 94.4167 640 96.05C641.6 97.65 643.466 98.9 645.6 99.8ZM653.617 87.5987L657.25 93.2H662.45L658.224 86.6848C658.726 86.4512 659.185 86.173 659.6 85.85C661.1 84.65 661.85 82.9333 661.85 80.7C661.85 78.5667 661.1 76.8833 659.6 75.65C658.1 74.4167 656.033 73.8 653.4 73.8H644.95V93.2H650.15V87.6H653.4C653.472 87.6 653.545 87.5995 653.617 87.5987ZM658.2 96.8C656.466 97.5333 654.583 97.9 652.55 97.9C650.516 97.9 648.633 97.5333 646.9 96.8C645.167 96.0667 643.667 95.05 642.4 93.75C641.133 92.45 640.15 90.9333 639.45 89.2C638.75 87.4333 638.4 85.5333 638.4 83.5C638.4 81.4667 638.75 79.5833 639.45 77.85C640.15 76.1167 641.133 74.6 642.4 73.3C643.7 71.9667 645.216 70.9333 646.95 70.2C648.716 69.4667 650.616 69.1 652.65 69.1C654.716 69.1 656.616 69.4667 658.35 70.2C660.083 70.9 661.566 71.9 662.8 73.2C664.066 74.4667 665.05 75.9833 665.75 77.75C666.483 79.4833 666.85 81.3667 666.85 83.4C666.85 85.4333 666.483 87.3333 665.75 89.1C665.05 90.8667 664.05 92.4 662.75 93.7C661.45 95 659.933 96.0333 658.2 96.8ZM653.05 83.7H650.1V77.65H653.05C654.216 77.65 655.116 77.9167 655.75 78.45C656.417 78.9833 656.75 79.7333 656.75 80.7C656.75 81.6333 656.417 82.3667 655.75 82.9C655.116 83.4333 654.216 83.7 653.05 83.7Z" fill="black"/>
</svg>
